<svg width="114" height="194" viewBox="0 0 114 194" fill="none" xmlns="http://www.w3.org/2000/svg">
<path fill-rule="evenodd" clip-rule="evenodd" d="M51.095 5C31.773 29.443 28.893 47.653 42.802 57.428C46.351 59.923 48.289 60.507 54.096 60.836C62.904 61.333 68.571 59.325 73.383 53.998C80.445 46.181 80.341 37.2 73.024 23.196C68.365 14.28 58.067 0.025 56.273 0.00999998C55.599 0.00499998 53.268 2.25 51.095 5ZM45.541 37.649C45.822 39.382 47.192 42.477 48.584 44.528C51.503 48.83 51.146 51 47.517 51C43.543 51 40.754 45.806 41.343 39.5C41.599 36.75 42.414 33.161 43.154 31.524L44.5 28.548L44.764 31.524C44.909 33.161 45.259 35.917 45.541 37.649ZM3.186 71.728C0.193 72.097 -0.0780027 72.396 0.398997 74.818C0.688997 76.293 4.613 103.712 9.119 135.75L17.311 194H57.006H96.7L104.944 135.25C109.478 102.938 113.408 75.536 113.676 74.358C114.121 72.401 113.63 72.153 108.02 71.502C104.642 71.11 101.63 71.037 101.328 71.339C101.026 71.641 97.307 96.326 93.064 126.194L85.349 180.5H56.973H28.597L20.844 126C16.58 96.025 13.071 71.388 13.046 71.25C12.987 70.931 7.493 71.198 3.186 71.728ZM20 85.652C20 93.463 21.022 96.111 24.615 97.613C28.959 99.428 37.151 99.381 41.614 97.517C44.752 96.206 45.497 96.206 48.032 97.517C51.725 99.426 61.275 99.426 64.968 97.517C67.503 96.206 68.248 96.206 71.386 97.517C75.866 99.388 84.046 99.426 88.429 97.594C91.347 96.375 91.94 95.505 92.897 91.045C93.504 88.216 94 85.045 94 83.999C94 82.266 93.762 82.316 91.353 84.549C88.096 87.567 81.788 89.37 77.38 88.543C75.564 88.203 72.763 86.61 71.157 85.003L68.236 82.082L66.37 84.143C63.843 86.936 59.648 89 56.5 89C53.352 89 49.157 86.936 46.63 84.143L44.764 82.082L41.843 85.003C40.237 86.61 37.345 88.22 35.418 88.581C31.117 89.388 23.65 86.767 21.498 83.694C20.063 81.645 20 81.727 20 85.652Z" fill="white"/>
</svg>
