<svg width="50" height="50" viewBox="0 0 50 50" fill="none" xmlns="http://www.w3.org/2000/svg">
<path fill-rule="evenodd" clip-rule="evenodd" d="M10.0471 1.91688C-2.38094 8.23088 -3.53794 26.8909 8.02506 34.5429C12.6631 37.6129 20.0511 38.5869 25.3741 36.8299L29.1021 35.5989L36.2641 42.7139C43.3241 49.7269 46.2071 51.0999 48.6791 48.6279C51.0351 46.2719 49.7821 43.5449 42.8761 35.9889C38.2601 30.9389 34.9621 29.3169 35.3791 28.3279C35.7281 27.5029 37.3601 22.9929 37.6281 20.1389C38.6461 9.32688 31.1621 0.792876 20.0391 0.0798753C15.6741 -0.200124 13.3881 0.219876 10.0471 1.91688ZM24.9731 7.37688C31.3691 10.6839 33.7171 19.3009 29.9191 25.5289C22.6431 37.4629 4.57906 31.0559 6.15206 17.0999C7.18106 7.97087 16.6561 3.07588 24.9731 7.37688Z" fill="white"/>
<path d="M25.4102 9.9375V27H21.8945L15.0391 15.5625V27H11.5234V9.9375H15.0391L21.9062 21.3867V9.9375H25.4102Z" fill="white"/>
</svg>
