<svg xmlns="http://www.w3.org/2000/svg" viewBox="0 0 53.75 54.11"><defs><style>.a{fill:#fff;}</style></defs><path class="a" d="M42.91,42.87h3.92a19.5,19.5,0,0,1,1.09,2.74c.72,3.18,3,4.22,5.81,3.78a5.26,5.26,0,0,0,4.73-5.33c.08-3.15-1.82-5-4.72-5.75a9.87,9.87,0,0,0-2.61-.06h-42V34c.94-.08,1.9-.23,2.86-.23q20.2,0,40.42,0c4.89,0,8.3,2.35,9.83,6.63,1.43,4,.37,8.72-2.49,11.11a10.65,10.65,0,0,1-12.32,1C44.44,50.83,42.76,47.38,42.91,42.87Z" transform="translate(-9.16 -8.92)"/><path class="a" d="M9.16,27V22.5H32.1c4.25,0,8.5,0,12.75,0,2.59,0,4.57-1.61,4.43-4-.1-1.66-1.71-4.09-3.17-4.55-1.3-.41-4.87.21-5.45,5-.2,1.59-2.34-1.14-4.35,0-.44-4.33.79-6.77,3.49-8.43,3.49-2.14,7.47-2.1,10,0,3.8,3.07,5.36,6.89,3.89,10.37a10.18,10.18,0,0,1-9.83,6.27C32.41,26.77,20.93,27,9.16,27Z" transform="translate(-9.16 -8.92)"/><path class="a" d="M18.29,53.24c1.89,1,2.9.23,4.32.44C24.47,54,24,58.37,28.17,58c1.51-.12,3-2.91,3.11-4.56.11-2.35-1.88-3.9-4.46-3.93-4.49-.05-9,0-13.47,0H9.17V45c6.52,0,13.09-.25,19.64.08,4.31.23,7.73,5.62,7.18,10.4-.5,4.4-5.22,7.88-10.17,7.5C21.69,62.68,18.14,58.61,18.29,53.24Z" transform="translate(-9.16 -8.92)"/></svg>