<svg width="50" height="50" viewBox="0 0 50 50" fill="none" xmlns="http://www.w3.org/2000/svg">
<path fill-rule="evenodd" clip-rule="evenodd" d="M10.0471 1.91688C-2.38094 8.23088 -3.53794 26.8909 8.02506 34.5429C12.6631 37.6129 20.0511 38.5869 25.3741 36.8299L29.1021 35.5989L36.2641 42.7139C43.3241 49.7269 46.2071 51.0999 48.6791 48.6279C51.0351 46.2719 49.7821 43.5449 42.8761 35.9889C38.2601 30.9389 34.9621 29.3169 35.3791 28.3279C35.7281 27.5029 37.3601 22.9929 37.6281 20.1389C38.6461 9.32688 31.1621 0.792876 20.0391 0.0798754C15.6741 -0.200124 13.3881 0.219876 10.0471 1.91688ZM24.9731 7.37688C31.3691 10.6839 33.7171 19.3009 29.9191 25.5289C22.6431 37.4629 4.57906 31.0559 6.15206 17.0999C7.18106 7.97087 16.6561 3.07588 24.9731 7.37688Z" fill="white"/>
<path d="M12.5234 9.9375H18.8867C20.1914 9.9375 21.3125 10.1328 22.25 10.5234C23.1953 10.9141 23.9219 11.4922 24.4297 12.2578C24.9375 13.0234 25.1914 13.9648 25.1914 15.082C25.1914 15.9961 25.0352 16.7812 24.7227 17.4375C24.418 18.0859 23.9844 18.6289 23.4219 19.0664C22.8672 19.4961 22.0625 19.8344 21.3711 20.0334L20.2465 20.3277L18.8867 20.6836H16.0391V17.9414H18.9102C19.5273 17.9414 20.0391 17.832 20.4453 17.6133C20.8516 17.3945 21.1563 17.0898 21.3594 16.6992C21.5703 16.3086 21.6758 15.8555 21.6758 15.3398C21.6758 14.793 21.5742 14.3203 21.3711 13.9219C21.168 13.5234 20.8594 13.2188 20.4453 13.0078C20.0313 12.7969 19.5117 12.6914 18.8867 12.6914H16.0391V27H12.5234V9.9375ZM22.0625 27L18.8867 20.6836L21.3711 20.0334L22.1173 19.7776L25.8242 26.8359V27H22.0625Z" fill="white"/>
</svg>
