<svg width="70" height="60" viewBox="0 0 70 60" fill="none" xmlns="http://www.w3.org/2000/svg">
<path fill-rule="evenodd" clip-rule="evenodd" d="M20.5823 1.16387C19.2073 1.84287 17.1823 4.29487 16.0823 6.61287C14.5823 9.77287 13.4943 10.8359 11.7333 10.8629C7.39429 10.9299 2.41129 14.0629 0.902293 17.6749C-1.58671 23.6339 1.18629 29.2899 7.83229 31.8079C10.0173 32.6349 10.5823 33.4869 10.5823 35.9509C10.5823 38.0749 11.5433 40.0139 13.6303 42.1009C16.3093 44.7799 17.1743 45.0829 20.7683 44.6009C23.0173 44.2989 25.5263 43.3829 26.3443 42.5649C27.6613 41.2489 28.0763 41.3489 29.9573 43.4329C33.3673 47.2139 40.4613 46.8619 42.6333 42.8039C43.6853 40.8379 43.8373 40.8199 45.6393 42.4509C47.0053 43.6869 48.5243 44.0079 51.0583 43.5969C53.8773 43.1389 54.7863 43.4109 55.6163 44.9619C56.1983 46.0499 57.7023 46.8989 59.0483 46.8989C60.7703 46.8989 61.5333 47.5309 61.7623 49.1489C62.1503 51.8809 66.6113 52.7739 68.5003 50.4979C70.0173 48.6699 69.0033 44.8989 66.9963 44.8989C65.9463 44.8989 65.7183 44.2059 66.1713 42.3989C66.5693 40.8139 66.3763 39.8989 65.6453 39.8989C64.8753 39.8989 64.7033 38.7699 65.1283 36.5039C65.8543 32.6339 64.2843 28.8989 61.9303 28.8989C60.7353 28.8989 60.5323 28.3489 61.0983 26.6489C63.5733 19.2119 59.4133 13.2559 52.4013 14.1959C49.0883 14.6409 48.5823 14.4459 48.5823 12.7269C48.5823 11.6369 47.2103 9.37287 45.5343 7.69687C42.8423 5.00487 42.0003 4.71387 38.3373 5.20487C34.7523 5.68587 33.7363 5.36387 30.8513 2.82987C27.2473 -0.334134 24.5123 -0.778134 20.5823 1.16387ZM65.2493 55.5659C63.8063 57.0089 64.6243 59.8989 66.4753 59.8989C68.7613 59.8989 69.8583 57.5749 68.3043 56.0209C67.0203 54.7369 66.2003 54.6149 65.2493 55.5659Z" fill="white"/>
</svg>
