<svg xmlns="http://www.w3.org/2000/svg" viewBox="0 0 29.73 36"><defs><style>.a{fill:#fff;}</style></defs><path class="a" d="M11.29,36h0c-1.09-1-3.6-2-4.71-3C3.86,30.55,2.19,27.46,3,23.82c.89-3.81,2.48-7.46,4-12l1.8,5C13,11.69,14.46,6.05,14.82,0h.24c3.35,4,7.18,8.05,10.32,11.82l.32-3h0c1.78,3.67,5.31,6.84,6.38,10.71a13.34,13.34,0,0,1-8.6,16c2.78-7.45.59-15.73-4.86-18.8L16.33,26.2c-.23,0,.22.05,0,0-.27-1.59-1.23-3.32-1.58-5.43-1.16,2.17-1.92,3.92-2.95,5.48C9.7,29.44,9.4,32.64,11.29,36Z" transform="translate(-2.82 0)"/></svg>